<svg width="131" height="32" viewBox="0 0 131 32" fill="none" xmlns="http://www.w3.org/2000/svg">
<path d="M37.9973 13.44C37.9973 10.464 36.101 8.48 33.2881 8.48C30.4753 8.48 28.579 10.464 28.579 13.44V25.6H23.9963V13.44C23.9963 8 27.7257 4.352 33.2881 4.32C38.8506 4.352 42.58 8 42.58 13.44V25.6H37.9973V13.44Z" fill="#2E42FF"/>
<path d="M43.5346 4.8H48.2121L54.059 19.808L59.9691 4.8H64.5519L53.8694 32H49.2867L51.8151 25.6H51.7519L43.5346 4.8Z" fill="#2E42FF"/>
<path d="M70.0691 18.336C70.0691 20.48 71.2701 22.08 73.8933 22.08C75.8845 22.08 77.0854 21.088 77.0854 19.776C77.0854 15.2 66.1185 18.496 66.1185 10.4C66.1185 6.912 69.3106 4.288 73.5773 4.288C77.9388 4.288 81.1941 7.264 81.1941 10.816H76.4533C76.4533 9.632 75.2207 8.448 73.5773 8.448C71.9338 8.448 70.7012 9.28 70.7012 10.4C70.7012 14.4 81.8262 11.936 81.8262 19.264C81.8262 23.264 78.2864 26.24 73.5773 26.24C68.963 26.24 65.4864 22.848 65.4864 18.336H70.0691Z" fill="#2E42FF"/>
<path d="M84.3432 4.8H88.9259V25.6H84.3432V4.8Z" fill="#2E42FF"/>
<path d="M92.7074 0H97.2901V4.8H101.051V8.96H97.2901V25.6H92.7074V0Z" fill="#2E42FF"/>
<path d="M122.5 20.5C122 22 117.959 26.208 113.092 26.208C107.15 26.208 102.315 21.312 102.315 15.296C102.315 9.312 107.15 4.448 113.092 4.448C118.56 4.448 124.533 9.088 123.711 16.832H107.214C107.814 19.872 110.248 22.048 113.092 22.048C115.399 22.048 117.454 20.608 118.433 18.368L122.5 20.5ZM107.403 12.992L118.686 12.96C117.864 10.336 115.652 8.608 113.092 8.608C110.5 8.608 108.257 10.368 107.403 12.992Z" fill="#2E42FF"/>
<path d="M127 25.856C125.199 25.856 123.84 24.48 123.84 22.656C123.84 20.832 125.199 19.456 127 19.456C128.802 19.456 130.161 20.832 130.161 22.656C130.161 24.48 128.802 25.856 127 25.856Z" fill="#2E42FF"/>
<path d="M20.1852 20.5C19.5001 22 15.6444 26.208 10.7773 26.208C4.83556 26.208 0 21.312 0 15.296C0 9.312 4.83556 4.448 10.7773 4.448C16.2449 4.448 22.2183 9.088 21.3965 16.832H4.89877C5.49926 19.872 7.93284 22.048 10.7773 22.048C13.0844 22.048 15.1388 20.608 16.1185 18.368L20.1852 20.5ZM5.0884 12.992L16.3714 12.96C15.5496 10.336 13.3373 8.608 10.7773 8.608C8.18568 8.608 5.94173 10.368 5.0884 12.992Z" fill="#2E42FF"/>
</svg>
